{"glyphs":{"0":{"ha":603,"x_min":85,"x_max":518,"o":"m 518 75 q 496 21 518 42 q 441 0 475 0 l 160 0 q 106 21 127 0 q 85 75 85 42 l 85 986 q 106 1040 85 1019 q 160 1061 127 1061 l 441 1061 q 496 1040 475 1061 q 518 986 518 1019 l 518 75 m 424 83 l 424 978 l 179 978 l 179 83 l 424 83 z "},"1":{"ha":282,"x_min":54,"x_max":191,"o":"m 191 0 l 96 0 l 96 736 l 54 736 l 54 739 l 114 1061 l 191 1061 l 191 0 z "},"2":{"ha":542,"x_min":58,"x_max":479,"o":"m 479 0 l 58 0 l 58 50 l 383 725 l 383 978 l 167 978 l 167 739 l 72 739 l 72 986 q 93 1040 72 1019 q 147 1061 114 1061 l 403 1061 q 457 1040 436 1061 q 478 986 478 1019 l 478 761 q 453 668 478 720 l 172 83 l 479 83 l 479 0 z "},"3":{"ha":586,"x_min":85,"x_max":509,"o":"m 509 75 q 488 21 509 42 q 433 0 467 0 l 160 0 q 106 21 127 0 q 85 75 85 42 l 85 345 l 179 345 l 179 83 l 414 83 l 414 408 l 227 549 l 227 570 l 412 708 l 412 978 l 180 978 l 180 739 l 86 739 l 86 986 q 107 1040 86 1019 q 161 1061 128 1061 l 432 1061 q 486 1040 465 1061 q 507 986 507 1019 l 507 728 q 467 648 507 677 l 340 559 l 468 471 q 509 390 509 443 l 509 75 z "},"4":{"ha":532,"x_min":29,"x_max":498,"o":"m 498 277 l 418 277 l 418 0 l 329 0 l 329 277 l 29 277 l 29 325 l 286 1061 l 375 1061 q 375 1057 375 1057 l 131 357 l 329 357 l 329 742 l 418 742 l 418 357 l 498 357 l 498 277 z "},"5":{"ha":571,"x_min":82,"x_max":493,"o":"m 493 75 q 472 21 493 42 q 418 0 451 0 l 157 0 q 103 21 123 0 q 82 75 82 42 l 82 345 l 176 345 l 176 83 l 399 83 l 399 583 l 85 583 l 97 1061 l 485 1061 l 485 978 l 189 978 l 178 667 l 418 667 q 472 646 451 667 q 493 591 493 625 l 493 75 z "},"6":{"ha":589,"x_min":85,"x_max":505,"o":"m 505 75 q 485 21 505 42 q 431 0 464 0 l 160 0 q 106 21 127 0 q 85 75 85 42 l 85 986 q 106 1040 85 1019 q 160 1061 127 1061 l 428 1061 q 482 1040 461 1061 q 503 986 503 1019 l 503 751 l 408 751 l 408 978 l 179 978 l 179 585 l 431 585 q 485 564 464 585 q 505 510 505 543 l 505 75 m 411 83 l 411 503 l 179 503 l 179 83 l 411 83 z "},"7":{"ha":504,"x_min":49,"x_max":469,"o":"m 469 1013 l 241 0 l 149 0 l 370 978 l 143 978 l 143 822 l 49 822 l 49 1061 l 469 1061 q 469 1013 469 1013 z "},"8":{"ha":599,"x_min":82,"x_max":513,"o":"m 513 75 q 491 21 513 42 q 436 0 469 0 l 157 0 q 103 21 123 0 q 82 75 82 42 l 82 421 q 117 489 82 467 l 220 555 l 119 618 q 85 686 85 640 l 85 986 q 106 1040 85 1019 q 160 1061 127 1061 l 435 1061 q 489 1040 468 1061 q 510 986 510 1019 l 510 686 q 475 618 510 640 l 375 555 l 476 489 q 513 421 513 465 l 513 75 m 415 673 l 415 978 l 179 978 l 179 673 l 297 595 l 415 673 m 418 83 l 418 435 l 297 514 l 176 435 l 176 83 l 418 83 z "},"9":{"ha":589,"x_min":81,"x_max":501,"o":"m 501 75 q 480 21 501 42 q 427 0 460 0 l 161 0 q 106 21 128 0 q 85 75 85 42 l 85 310 l 179 310 l 179 83 l 407 83 l 407 476 l 155 476 q 101 497 122 476 q 81 551 81 518 l 81 986 q 101 1040 81 1019 q 155 1061 122 1061 l 427 1061 q 480 1040 460 1061 q 501 986 501 1019 l 501 75 m 407 558 l 407 978 l 175 978 l 175 558 l 407 558 z "}," ":{"ha":272,"x_min":0,"x_max":0,"o":""},"!":{"ha":277,"x_min":86,"x_max":191,"o":"m 191 1061 l 170 239 l 107 239 l 86 1061 l 191 1061 m 189 0 l 87 0 l 87 119 l 189 119 l 189 0 z "},"\"":{"ha":427,"x_min":65,"x_max":359,"o":"m 359 1061 l 340 728 l 281 728 l 261 1061 l 359 1061 m 165 1061 l 144 728 l 86 728 l 65 1061 l 165 1061 z "},"#":{"ha":724,"x_min":35,"x_max":689,"o":"m 689 693 l 557 693 l 500 368 l 640 368 l 640 290 l 486 290 l 435 0 l 349 0 l 401 290 l 237 290 l 187 0 l 102 0 l 153 290 l 35 290 l 35 368 l 167 368 l 224 693 l 83 693 l 83 771 l 237 771 l 289 1061 l 375 1061 l 322 771 l 486 771 l 536 1061 l 623 1061 l 571 771 l 689 771 l 689 693 m 472 693 l 309 693 l 252 368 l 414 368 l 472 693 z "},"$":{"ha":576,"x_min":81,"x_max":494,"o":"m 494 82 q 389 5 494 5 q 357 6 378 5 q 328 7 336 7 l 328 -83 l 245 -83 l 245 7 q 217 6 237 7 q 186 5 197 5 q 81 82 81 5 l 81 345 l 175 345 l 175 86 l 245 86 l 245 524 l 111 690 q 81 771 81 728 l 81 979 q 186 1056 81 1056 q 217 1055 197 1056 q 245 1054 237 1054 l 245 1145 l 328 1145 l 328 1054 q 357 1055 336 1054 q 389 1056 378 1056 q 494 979 494 1056 l 494 739 l 400 739 l 400 975 l 328 975 l 328 566 l 464 400 q 494 321 494 363 l 494 82 m 245 661 l 245 975 l 175 975 l 175 751 l 245 661 m 400 86 l 400 340 l 328 428 l 328 86 l 400 86 z "},"%":{"ha":930,"x_min":41,"x_max":871,"o":"m 785 1055 l 201 0 l 123 0 l 123 5 l 707 1061 l 785 1061 l 785 1055 m 871 69 q 851 20 871 41 q 804 0 832 0 l 607 0 q 562 22 582 0 q 542 69 542 44 l 542 470 q 562 517 542 494 q 607 540 583 540 l 804 540 q 851 518 831 540 q 871 470 871 496 l 871 69 m 789 76 l 789 460 l 624 460 l 624 76 l 789 76 m 370 591 q 350 542 370 562 q 303 522 331 522 l 106 522 q 61 544 81 522 q 41 591 41 566 l 41 991 q 61 1039 41 1016 q 106 1061 81 1061 l 303 1061 q 350 1040 330 1061 q 370 991 370 1018 l 370 591 m 288 597 l 288 982 l 123 982 l 123 597 l 288 597 z "},"&":{"ha":604,"x_min":81,"x_max":576,"o":"m 576 513 l 498 513 l 498 0 l 155 0 q 101 21 122 0 q 81 75 81 42 l 81 436 q 115 504 81 481 l 195 555 q 121 600 157 578 q 83 671 83 629 l 83 986 q 104 1040 83 1019 q 158 1061 125 1061 l 427 1061 q 481 1040 460 1061 q 503 986 503 1019 l 503 764 l 408 764 l 408 978 l 176 978 l 176 659 l 272 595 l 576 595 l 576 513 m 406 83 l 406 513 l 271 513 l 174 450 l 174 83 l 406 83 z "},"'":{"ha":231,"x_min":65,"x_max":165,"o":"m 165 1061 l 144 728 l 86 728 l 65 1061 l 165 1061 z "},"(":{"ha":366,"x_min":71,"x_max":321,"o":"m 321 -136 l 239 -136 q 71 463 71 137 q 239 1061 71 788 l 321 1061 l 321 1054 q 202 769 238 904 q 165 463 165 631 q 202 156 165 294 q 321 -129 238 21 l 321 -136 z "},")":{"ha":366,"x_min":46,"x_max":294,"o":"m 294 463 q 126 -136 294 137 l 46 -136 l 46 -129 q 164 156 129 21 q 201 463 201 294 q 164 769 201 631 q 46 1054 129 904 l 46 1061 l 126 1061 q 294 463 294 788 z "},"*":{"ha":551,"x_min":66,"x_max":485,"o":"m 485 775 l 440 701 l 300 806 l 317 629 l 233 629 l 252 806 l 110 701 l 66 775 l 229 844 l 66 916 l 110 987 l 252 885 l 233 1061 l 317 1061 l 300 885 l 440 987 l 485 916 l 322 844 l 485 775 z "},"+":{"ha":568,"x_min":47,"x_max":522,"o":"m 522 427 l 326 427 l 326 235 l 243 235 l 243 427 l 47 427 l 47 505 l 243 505 l 243 697 l 326 697 l 326 505 l 522 505 l 522 427 z "},",":{"ha":231,"x_min":56,"x_max":180,"o":"m 180 119 l 121 -75 l 56 -75 l 75 119 l 180 119 z "},"-":{"ha":410,"x_min":65,"x_max":345,"o":"m 345 363 l 65 363 l 65 447 l 345 447 l 345 363 z "},".":{"ha":231,"x_min":64,"x_max":167,"o":"m 167 0 l 64 0 l 64 119 l 167 119 l 167 0 z "},"/":{"ha":600,"x_min":31,"x_max":570,"o":"m 570 1055 l 121 0 l 31 0 l 31 5 l 479 1061 l 570 1061 l 570 1055 z "},":":{"ha":231,"x_min":64,"x_max":167,"o":"m 167 458 l 64 458 l 64 578 l 167 578 l 167 458 m 167 0 l 64 0 l 64 119 l 167 119 l 167 0 z "},";":{"ha":231,"x_min":45,"x_max":171,"o":"m 167 458 l 64 458 l 64 578 l 167 578 l 167 458 m 171 119 l 110 -75 l 45 -75 l 64 119 l 171 119 z "},"<":{"ha":473,"x_min":52,"x_max":396,"o":"m 396 164 l 392 164 l 52 419 l 52 468 l 396 725 l 396 631 l 144 444 l 396 258 l 396 164 z "},"=":{"ha":612,"x_min":69,"x_max":543,"o":"m 543 513 l 69 513 l 69 595 l 543 595 l 543 513 m 543 265 l 69 265 l 69 346 l 543 346 l 543 265 z "},">":{"ha":473,"x_min":78,"x_max":422,"o":"m 422 419 l 78 164 l 78 258 l 329 444 l 78 631 l 78 725 l 83 725 l 422 468 l 422 419 z "},"?":{"ha":530,"x_min":61,"x_max":467,"o":"m 467 747 q 446 675 467 707 l 307 464 l 307 239 l 212 239 l 212 441 q 232 515 212 486 l 372 725 l 372 978 l 155 978 l 155 739 l 61 739 l 61 986 q 83 1040 61 1019 q 138 1061 104 1061 l 390 1061 q 445 1040 424 1061 q 467 986 467 1019 l 467 747 m 311 0 l 208 0 l 208 119 l 311 119 l 311 0 z "},"@":{"ha":783,"x_min":85,"x_max":699,"o":"m 699 0 l 129 0 q 85 45 85 0 l 85 1017 q 129 1061 85 1061 l 654 1061 q 699 1017 699 1061 l 699 279 q 654 235 699 235 l 310 235 q 261 282 261 235 l 261 532 q 310 581 261 581 l 452 581 l 452 770 l 335 770 l 335 659 l 267 659 l 267 783 q 315 832 267 832 l 471 832 q 519 783 519 832 l 519 286 l 647 286 l 647 1014 l 136 1014 l 136 47 l 699 47 l 699 0 m 452 296 l 452 519 l 330 519 l 330 296 l 452 296 z "},"A":{"ha":555,"x_min":43,"x_max":513,"o":"m 513 0 l 419 0 l 382 236 l 171 236 l 134 0 l 43 0 l 43 3 l 232 1064 l 325 1064 l 513 0 m 370 319 l 277 895 l 183 319 l 370 319 z "},"B":{"ha":590,"x_min":85,"x_max":510,"o":"m 510 75 q 489 21 510 42 q 435 0 468 0 l 85 0 l 85 1061 l 432 1061 q 486 1040 465 1061 q 507 986 507 1019 l 507 671 q 469 600 507 629 q 395 555 432 578 l 475 504 q 510 436 510 482 l 510 75 m 412 659 l 412 978 l 179 978 l 179 595 l 318 595 l 412 659 m 415 83 l 415 450 l 319 513 l 179 513 l 179 83 l 415 83 z "},"C":{"ha":590,"x_min":85,"x_max":510,"o":"m 510 75 q 488 21 510 42 q 433 0 467 0 l 160 0 q 106 21 127 0 q 85 75 85 42 l 85 986 q 106 1040 85 1019 q 160 1061 127 1061 l 433 1061 q 488 1040 467 1061 q 510 986 510 1019 l 510 739 l 415 739 l 415 978 l 179 978 l 179 83 l 415 83 l 415 345 l 510 345 l 510 75 z "},"D":{"ha":603,"x_min":85,"x_max":522,"o":"m 522 192 q 467 54 522 108 q 328 0 412 0 l 85 0 l 85 1061 l 328 1061 q 467 1007 412 1061 q 522 869 522 954 l 522 192 m 428 201 l 428 861 q 395 946 428 913 q 310 978 362 978 l 179 978 l 179 83 l 304 83 q 394 115 359 83 q 428 201 428 146 z "},"E":{"ha":496,"x_min":85,"x_max":433,"o":"m 433 0 l 85 0 l 85 1061 l 429 1061 l 429 978 l 179 978 l 179 582 l 407 582 l 407 497 l 179 497 l 179 83 l 433 83 l 433 0 z "},"F":{"ha":472,"x_min":85,"x_max":427,"o":"m 427 978 l 179 978 l 179 575 l 407 575 l 407 490 l 179 490 l 179 0 l 85 0 l 85 1061 l 427 1061 l 427 978 z "},"G":{"ha":597,"x_min":85,"x_max":514,"o":"m 514 75 q 493 21 514 42 q 439 0 472 0 l 160 0 q 106 21 127 0 q 85 75 85 42 l 85 986 q 106 1040 85 1019 q 160 1061 127 1061 l 439 1061 q 493 1040 472 1061 q 514 986 514 1019 l 514 739 l 419 739 l 419 978 l 179 978 l 179 83 l 419 83 l 419 450 l 306 450 l 306 532 l 514 532 l 514 75 z "},"H":{"ha":614,"x_min":85,"x_max":529,"o":"m 529 0 l 435 0 l 435 510 l 179 510 l 179 0 l 85 0 l 85 1061 l 179 1061 l 179 595 l 435 595 l 435 1061 l 529 1061 l 529 0 z "},"I":{"ha":277,"x_min":90,"x_max":184,"o":"m 184 0 l 90 0 l 90 1061 l 184 1061 l 184 0 z "},"J":{"ha":543,"x_min":61,"x_max":458,"o":"m 458 75 q 437 21 458 42 q 383 0 416 0 l 136 0 q 82 21 103 0 q 61 75 61 42 l 61 345 l 155 345 l 155 83 l 364 83 l 364 1061 l 458 1061 l 458 75 z "},"K":{"ha":534,"x_min":85,"x_max":528,"o":"m 528 0 l 424 0 l 179 510 l 179 0 l 85 0 l 85 1061 l 179 1061 l 179 585 l 401 1061 l 504 1061 l 504 1055 l 264 550 l 528 0 z "},"L":{"ha":468,"x_min":85,"x_max":424,"o":"m 424 0 l 85 0 l 85 1061 l 179 1061 l 179 83 l 424 83 l 424 0 z "},"M":{"ha":694,"x_min":85,"x_max":610,"o":"m 610 0 l 521 0 l 521 672 q 530 755 521 686 l 357 100 l 338 100 l 164 755 q 174 672 174 686 l 174 0 l 85 0 l 85 1061 l 172 1061 l 345 371 q 347 340 346 366 q 350 371 347 351 l 522 1061 l 610 1061 l 610 0 z "},"N":{"ha":607,"x_min":85,"x_max":522,"o":"m 522 0 l 457 0 l 174 781 l 174 0 l 85 0 l 85 1061 l 155 1061 l 433 294 l 433 1061 l 522 1061 l 522 0 z "},"O":{"ha":618,"x_min":85,"x_max":533,"o":"m 533 75 q 512 21 533 42 q 457 0 490 0 l 160 0 q 106 21 127 0 q 85 75 85 42 l 85 986 q 106 1040 85 1019 q 160 1061 127 1061 l 457 1061 q 512 1040 490 1061 q 533 986 533 1019 l 533 75 m 439 83 l 439 978 l 179 978 l 179 83 l 439 83 z "},"P":{"ha":570,"x_min":85,"x_max":505,"o":"m 505 497 q 484 443 505 464 q 429 421 463 421 l 179 421 l 179 0 l 85 0 l 85 1061 l 429 1061 q 484 1040 463 1061 q 505 986 505 1019 l 505 497 m 411 505 l 411 978 l 179 978 l 179 505 l 411 505 z "},"Q":{"ha":625,"x_min":85,"x_max":606,"o":"m 606 -1 l 597 -1 l 528 56 q 458 0 515 0 l 160 0 q 106 21 127 0 q 85 75 85 42 l 85 986 q 106 1040 85 1019 q 160 1061 127 1061 l 458 1061 q 512 1040 492 1061 q 533 986 533 1019 l 533 150 l 606 92 l 606 -1 m 439 83 l 439 125 l 326 218 l 326 311 l 335 311 l 439 225 l 439 978 l 179 978 l 179 83 l 439 83 z "},"R":{"ha":593,"x_min":85,"x_max":536,"o":"m 536 0 l 437 0 l 240 568 l 253 587 l 421 587 l 421 978 l 179 978 l 179 0 l 85 0 l 85 1061 l 440 1061 q 494 1040 473 1061 q 515 986 515 1019 l 515 583 q 412 507 515 507 q 382 508 402 507 q 354 509 363 509 q 536 0 446 255 z "},"S":{"ha":581,"x_min":81,"x_max":498,"o":"m 498 75 q 478 21 498 42 q 424 0 457 0 l 157 0 q 102 21 123 0 q 81 75 81 42 l 81 345 l 175 345 l 175 83 l 404 83 l 404 336 l 111 690 q 81 771 81 727 l 81 986 q 102 1040 81 1019 q 157 1061 123 1061 l 424 1061 q 478 1040 457 1061 q 498 986 498 1019 l 498 739 l 404 739 l 404 978 l 175 978 l 175 754 l 469 400 q 498 321 498 365 l 498 75 z "},"T":{"ha":476,"x_min":26,"x_max":450,"o":"m 450 978 l 286 978 l 286 0 l 192 0 l 192 978 l 26 978 l 26 1061 l 450 1061 l 450 978 z "},"U":{"ha":610,"x_min":85,"x_max":525,"o":"m 525 75 q 504 21 525 42 q 449 0 482 0 l 160 0 q 106 21 127 0 q 85 75 85 42 l 85 1061 l 179 1061 l 179 83 l 431 83 l 431 1061 l 525 1061 l 525 75 z "},"V":{"ha":542,"x_min":43,"x_max":499,"o":"m 499 1061 l 315 -3 l 227 -3 l 43 1061 l 136 1061 l 268 216 q 272 147 268 216 q 277 216 273 171 l 408 1061 l 499 1061 z "},"W":{"ha":761,"x_min":41,"x_max":720,"o":"m 720 1061 l 575 -3 l 498 -3 l 383 798 q 380 860 382 819 q 378 798 380 838 l 262 -3 l 186 -3 l 41 1061 l 135 1061 l 225 296 q 228 220 226 270 q 231 296 227 245 l 340 1061 l 421 1061 l 530 296 q 533 220 532 270 q 536 296 533 245 l 627 1061 l 720 1061 z "},"X":{"ha":533,"x_min":29,"x_max":505,"o":"m 504 0 l 407 0 l 265 436 l 123 0 l 29 0 q 29 5 29 5 l 218 543 q 40 1061 39 1059 l 139 1061 l 267 659 l 399 1061 l 493 1061 q 493 1055 493 1057 l 317 549 q 504 0 505 3 z "},"Y":{"ha":542,"x_min":31,"x_max":511,"o":"m 511 1055 l 382 626 q 318 411 358 562 l 318 0 l 224 0 l 224 411 q 195 519 214 463 q 159 626 162 617 l 31 1055 q 31 1061 31 1056 l 126 1061 l 272 530 l 416 1061 l 511 1061 q 511 1055 511 1057 z "},"Z":{"ha":478,"x_min":33,"x_max":440,"o":"m 440 0 l 33 0 q 33 50 33 50 l 332 978 l 62 978 l 62 1061 l 440 1061 q 440 1013 440 1013 l 142 83 l 440 83 l 440 0 z "},"[":{"ha":403,"x_min":87,"x_max":343,"o":"m 343 -168 l 163 -168 q 109 -147 130 -168 q 87 -93 87 -126 l 87 986 q 109 1040 87 1019 q 163 1061 130 1061 l 343 1061 l 343 978 l 182 978 l 182 -85 l 343 -85 l 343 -168 z "},"\\":{"ha":600,"x_min":31,"x_max":570,"o":"m 570 0 l 479 0 l 31 1061 l 121 1061 l 570 0 z "},"]":{"ha":403,"x_min":60,"x_max":317,"o":"m 317 -93 q 295 -147 317 -126 q 240 -168 273 -168 l 60 -168 l 60 -85 l 222 -85 l 222 978 l 60 978 l 60 1061 l 240 1061 q 295 1040 273 1061 q 317 986 317 1019 l 317 -93 z "},"^":{"ha":555,"x_min":65,"x_max":490,"o":"m 490 686 l 414 686 l 277 949 l 139 686 l 65 686 l 65 692 l 243 1061 l 314 1061 l 490 686 z "},"_":{"ha":501,"x_min":0,"x_max":501,"o":"m 501 -278 l 0 -278 l 0 -203 l 501 -203 l 501 -278 z "},"`":{"ha":555,"x_min":196,"x_max":425,"o":"m 425 718 l 363 718 l 196 875 l 196 878 l 323 878 l 425 722 l 425 718 z "},"a":{"ha":521,"x_min":71,"x_max":447,"o":"m 447 0 l 358 0 l 358 18 q 251 4 304 11 q 144 -4 184 -4 q 71 69 71 -4 l 71 310 q 147 386 71 386 l 359 386 l 359 585 l 165 585 l 165 472 l 78 472 l 78 583 q 154 660 78 660 l 371 660 q 447 583 447 660 l 447 0 m 359 82 l 359 315 l 158 315 l 158 78 l 359 82 z "},"b":{"ha":526,"x_min":74,"x_max":453,"o":"m 453 142 q 413 40 453 81 q 313 0 373 0 l 74 0 l 74 1061 l 164 1061 l 164 642 q 271 655 218 648 q 378 664 339 664 q 453 590 453 664 l 453 142 m 363 155 l 363 579 l 164 574 l 164 79 l 289 79 q 363 155 363 79 z "},"c":{"ha":513,"x_min":74,"x_max":440,"o":"m 440 77 q 364 0 440 0 l 150 0 q 74 77 74 0 l 74 583 q 150 660 74 660 l 364 660 q 440 583 440 660 l 440 452 l 351 452 l 351 581 l 164 581 l 164 79 l 351 79 l 351 227 l 440 227 l 440 77 z "},"d":{"ha":524,"x_min":71,"x_max":449,"o":"m 449 0 l 359 0 l 359 18 q 199 -4 214 -4 q 106 35 141 -4 q 71 132 71 74 l 71 518 q 111 620 71 579 q 211 660 151 660 l 359 660 l 359 1061 l 449 1061 l 449 0 m 359 82 l 359 581 l 235 581 q 160 504 160 581 l 160 151 q 235 75 160 75 q 359 82 252 75 z "},"e":{"ha":518,"x_min":74,"x_max":443,"o":"m 443 77 q 367 0 443 0 l 150 0 q 74 77 74 0 l 74 583 q 150 660 74 660 l 367 660 q 443 583 443 660 l 443 346 l 412 314 l 161 314 l 161 75 l 355 75 l 355 196 l 443 196 l 443 77 m 355 386 l 355 585 l 161 585 l 161 386 l 355 386 z "},"f":{"ha":330,"x_min":31,"x_max":323,"o":"m 323 982 l 196 982 l 196 660 l 309 660 l 309 581 l 196 581 l 196 0 l 107 0 l 107 581 l 31 581 l 31 660 l 107 660 l 107 985 q 183 1061 107 1061 l 323 1061 l 323 982 z "},"g":{"ha":524,"x_min":71,"x_max":449,"o":"m 449 -174 q 372 -250 449 -250 l 158 -250 q 80 -153 80 -250 q 81 -119 80 -142 q 82 -86 82 -96 l 171 -86 l 171 -174 l 359 -174 l 359 0 l 211 0 q 111 40 151 0 q 71 142 71 81 l 71 528 q 106 625 71 586 q 199 664 141 664 q 359 642 214 664 l 359 660 l 449 660 l 449 -174 m 359 79 l 359 578 q 235 585 252 585 q 160 509 160 585 l 160 155 q 235 79 160 79 l 359 79 z "},"h":{"ha":525,"x_min":74,"x_max":453,"o":"m 453 0 l 363 0 l 363 579 l 164 574 l 164 0 l 74 0 l 74 1061 l 164 1061 l 164 642 q 271 655 218 648 q 378 664 339 664 q 453 590 453 664 l 453 0 z "},"i":{"ha":248,"x_min":78,"x_max":170,"o":"m 170 804 l 78 804 l 78 918 l 170 918 l 170 804 m 168 0 l 79 0 l 79 660 l 168 660 l 168 0 z "},"j":{"ha":248,"x_min":-21,"x_max":170,"o":"m 170 804 l 78 804 l 78 918 l 170 918 l 170 804 m 168 -174 q 92 -250 168 -250 l -21 -250 l -21 -171 l 79 -171 l 79 660 l 168 660 l 168 -174 z "},"k":{"ha":465,"x_min":74,"x_max":444,"o":"m 444 0 l 346 0 l 164 336 l 164 0 l 74 0 l 74 1061 l 164 1061 l 164 387 l 334 660 l 431 660 l 431 657 l 239 366 l 444 0 z "},"l":{"ha":248,"x_min":79,"x_max":168,"o":"m 168 0 l 79 0 l 79 1061 l 168 1061 l 168 0 z "},"m":{"ha":810,"x_min":74,"x_max":737,"o":"m 737 0 l 647 0 l 647 579 l 450 574 l 450 0 l 361 0 l 361 579 l 164 574 l 164 0 l 74 0 l 74 660 l 164 660 l 164 642 q 270 656 217 648 q 376 664 334 664 q 437 639 418 664 q 551 654 494 646 q 663 664 625 664 q 737 590 737 664 l 737 0 z "},"n":{"ha":525,"x_min":74,"x_max":453,"o":"m 453 0 l 363 0 l 363 579 l 164 574 l 164 0 l 74 0 l 74 660 l 164 660 l 164 642 q 271 656 217 648 q 378 664 336 664 q 453 590 453 664 l 453 0 z "},"o":{"ha":526,"x_min":74,"x_max":453,"o":"m 453 77 q 376 0 453 0 l 150 0 q 74 77 74 0 l 74 583 q 150 660 74 660 l 376 660 q 453 583 453 660 l 453 77 m 363 79 l 363 581 l 164 581 l 164 79 l 363 79 z "},"p":{"ha":524,"x_min":74,"x_max":453,"o":"m 453 142 q 413 40 453 81 q 313 0 373 0 l 164 0 l 164 -250 l 74 -250 l 74 660 l 164 660 l 164 642 q 271 655 218 648 q 378 664 339 664 q 453 590 453 664 l 453 142 m 363 155 l 363 579 l 164 574 l 164 79 l 289 79 q 363 155 363 79 z "},"q":{"ha":524,"x_min":71,"x_max":449,"o":"m 449 -250 l 359 -250 l 359 0 l 211 0 q 111 40 151 0 q 71 142 71 81 l 71 528 q 106 625 71 586 q 199 664 141 664 q 359 642 214 664 l 359 660 l 449 660 l 449 -250 m 359 79 l 359 578 q 235 585 252 585 q 160 509 160 585 l 160 155 q 235 79 160 79 l 359 79 z "},"r":{"ha":460,"x_min":74,"x_max":419,"o":"m 419 443 l 330 443 l 330 579 l 164 574 l 164 0 l 74 0 l 74 660 l 164 660 l 164 642 q 254 656 209 648 q 345 664 309 664 q 419 590 419 664 l 419 443 z "},"s":{"ha":498,"x_min":69,"x_max":429,"o":"m 429 77 q 353 0 429 0 l 146 0 q 69 77 69 0 l 69 227 l 158 227 l 158 78 l 340 78 l 340 210 l 104 403 q 71 473 71 430 l 71 583 q 147 660 71 660 l 351 660 q 428 583 428 660 l 428 452 l 340 452 l 340 582 l 158 582 l 158 467 l 396 273 q 429 201 429 247 l 429 77 z "},"t":{"ha":353,"x_min":28,"x_max":311,"o":"m 311 0 l 183 0 q 107 77 107 0 l 107 581 l 28 581 l 28 660 l 107 660 l 107 865 l 196 865 l 196 660 l 311 660 l 311 581 l 196 581 l 196 79 l 311 79 l 311 0 z "},"u":{"ha":525,"x_min":74,"x_max":452,"o":"m 452 0 l 363 0 l 363 18 q 255 4 309 11 q 147 -4 190 -4 q 74 69 74 -4 l 74 660 l 163 660 l 163 81 l 363 86 l 363 660 l 452 660 l 452 0 z "},"v":{"ha":482,"x_min":36,"x_max":446,"o":"m 446 660 l 282 -1 l 200 -1 l 36 660 l 129 660 l 241 140 l 355 660 l 446 660 z "},"w":{"ha":701,"x_min":37,"x_max":664,"o":"m 664 660 l 528 -1 l 447 -1 l 350 500 l 253 -1 l 174 -1 l 37 660 l 122 660 l 215 151 l 311 660 l 390 660 l 486 151 l 579 660 l 664 660 z "},"x":{"ha":460,"x_min":28,"x_max":432,"o":"m 432 0 l 340 0 l 229 261 l 117 0 l 28 0 l 28 3 l 182 339 l 37 660 l 129 660 l 231 418 l 335 660 l 422 660 l 422 657 l 278 342 l 432 0 z "},"y":{"ha":482,"x_min":36,"x_max":446,"o":"m 446 660 l 287 5 l 221 -250 l 132 -250 l 199 5 l 36 660 l 129 660 l 241 140 l 355 660 l 446 660 z "},"z":{"ha":444,"x_min":43,"x_max":390,"o":"m 390 0 l 43 0 l 43 41 l 283 579 l 68 579 l 68 660 l 390 660 l 390 618 l 149 81 l 390 81 l 390 0 z "},"{":{"ha":473,"x_min":43,"x_max":414,"o":"m 414 -168 l 296 -168 q 196 -129 235 -168 q 157 -29 157 -90 l 157 353 l 43 458 l 43 478 l 157 583 l 157 922 q 196 1022 157 983 q 296 1061 235 1061 l 414 1061 l 414 979 q 382 980 405 979 q 347 981 359 981 q 252 911 252 981 l 252 596 q 218 522 252 554 q 150 468 184 495 q 218 414 184 441 q 252 340 252 382 l 252 -18 q 347 -88 252 -88 q 382 -87 359 -88 q 414 -86 405 -86 l 414 -168 z "},"|":{"ha":283,"x_min":98,"x_max":184,"o":"m 184 -232 l 98 -232 l 98 1061 l 184 1061 l 184 -232 z "},"}":{"ha":473,"x_min":60,"x_max":431,"o":"m 431 458 l 317 353 l 317 -29 q 277 -129 317 -89 q 178 -168 237 -168 l 60 -168 l 60 -86 q 91 -87 68 -86 q 126 -88 114 -88 q 222 -18 222 -88 l 222 340 q 256 414 222 382 q 323 468 290 441 q 256 522 290 495 q 222 596 222 554 l 222 911 q 126 981 222 981 q 91 980 114 981 q 60 979 68 979 l 60 1061 l 178 1061 q 277 1022 237 1061 q 317 922 317 982 l 317 583 l 431 478 l 431 458 z "},"~":{"ha":701,"x_min":115,"x_max":586,"o":"m 586 370 q 530 311 586 311 q 460 325 496 311 l 204 422 l 204 315 l 115 315 l 115 457 q 171 515 115 515 q 241 501 205 515 l 497 404 l 497 511 l 586 511 l 586 370 z "},"Ä":{"ha":555,"x_min":43,"x_max":513,"o":"m 513 0 l 419 0 l 382 236 l 171 236 l 134 0 l 43 0 l 43 3 l 232 1064 l 325 1064 l 513 0 m 370 319 l 277 895 l 183 319 l 370 319 m 415 1121 l 315 1121 l 315 1223 l 415 1223 l 415 1121 m 240 1121 l 140 1121 l 140 1223 l 240 1223 l 240 1121 z "},"Å":{"ha":555,"x_min":43,"x_max":513,"o":"m 513 0 l 419 0 l 382 236 l 171 236 l 134 0 l 43 0 l 43 3 l 232 1064 l 325 1064 l 513 0 m 370 319 l 277 895 l 183 319 l 370 319 m 408 1077 q 346 1015 408 1015 l 210 1015 q 147 1077 147 1015 l 147 1204 q 210 1267 147 1267 l 346 1267 q 408 1204 408 1267 l 408 1077 m 339 1077 l 339 1204 l 216 1204 l 216 1077 l 339 1077 z "},"Ç":{"ha":590,"x_min":85,"x_max":510,"o":"m 510 75 q 488 21 510 42 q 433 0 467 0 l 160 0 q 106 21 127 0 q 85 75 85 42 l 85 986 q 106 1040 85 1019 q 160 1061 127 1061 l 433 1061 q 488 1040 467 1061 q 510 986 510 1019 l 510 739 l 415 739 l 415 978 l 179 978 l 179 83 l 415 83 l 415 345 l 510 345 l 510 75 m 422 -208 q 368 -262 422 -262 l 229 -262 q 174 -208 174 -262 l 174 -132 l 245 -132 l 245 -201 l 349 -201 l 349 -129 q 289 -98 319 -114 q 259 -44 259 -79 l 259 1 l 332 1 l 332 -45 q 393 -77 362 -61 q 422 -132 422 -96 l 422 -208 z "},"É":{"ha":496,"x_min":85,"x_max":433,"o":"m 433 0 l 85 0 l 85 1061 l 429 1061 l 429 978 l 179 978 l 179 582 l 407 582 l 407 497 l 179 497 l 179 83 l 433 83 l 433 0 m 393 1278 l 227 1121 l 163 1121 l 163 1125 l 265 1280 l 393 1280 l 393 1278 z "},"Ñ":{"ha":607,"x_min":85,"x_max":522,"o":"m 522 0 l 457 0 l 174 781 l 174 0 l 85 0 l 85 1061 l 155 1061 l 433 294 l 433 1061 l 522 1061 l 522 0 m 447 1169 q 397 1120 447 1120 q 307 1144 368 1120 q 224 1181 266 1162 l 224 1121 l 153 1121 l 153 1204 q 202 1254 153 1254 q 292 1230 231 1254 q 374 1193 333 1211 l 374 1253 l 447 1253 l 447 1169 z "},"Ö":{"ha":618,"x_min":85,"x_max":533,"o":"m 533 75 q 512 21 533 42 q 457 0 490 0 l 160 0 q 106 21 127 0 q 85 75 85 42 l 85 986 q 106 1040 85 1019 q 160 1061 127 1061 l 457 1061 q 512 1040 490 1061 q 533 986 533 1019 l 533 75 m 439 83 l 439 978 l 179 978 l 179 83 l 439 83 m 446 1121 l 347 1121 l 347 1223 l 446 1223 l 446 1121 m 271 1121 l 172 1121 l 172 1223 l 271 1223 l 271 1121 z "},"Ü":{"ha":610,"x_min":85,"x_max":525,"o":"m 525 75 q 504 21 525 42 q 449 0 482 0 l 160 0 q 106 21 127 0 q 85 75 85 42 l 85 1061 l 179 1061 l 179 83 l 431 83 l 431 1061 l 525 1061 l 525 75 m 442 1121 l 342 1121 l 342 1223 l 442 1223 l 442 1121 m 267 1121 l 168 1121 l 168 1223 l 267 1223 l 267 1121 z "},"á":{"ha":521,"x_min":71,"x_max":447,"o":"m 447 0 l 358 0 l 358 18 q 251 4 304 11 q 144 -4 184 -4 q 71 69 71 -4 l 71 310 q 147 386 71 386 l 359 386 l 359 585 l 165 585 l 165 472 l 78 472 l 78 583 q 154 660 78 660 l 371 660 q 447 583 447 660 l 447 0 m 359 82 l 359 315 l 158 315 l 158 78 l 359 82 m 410 875 l 243 718 l 180 718 l 180 722 l 282 878 l 410 878 l 410 875 z "},"à":{"ha":521,"x_min":71,"x_max":447,"o":"m 447 0 l 358 0 l 358 18 q 251 4 304 11 q 144 -4 184 -4 q 71 69 71 -4 l 71 310 q 147 386 71 386 l 359 386 l 359 585 l 165 585 l 165 472 l 78 472 l 78 583 q 154 660 78 660 l 371 660 q 447 583 447 660 l 447 0 m 359 82 l 359 315 l 158 315 l 158 78 l 359 82 m 344 718 l 281 718 l 115 875 l 115 878 l 242 878 l 344 722 l 344 718 z "},"â":{"ha":521,"x_min":71,"x_max":447,"o":"m 447 0 l 358 0 l 358 18 q 251 4 304 11 q 144 -4 184 -4 q 71 69 71 -4 l 71 310 q 147 386 71 386 l 359 386 l 359 585 l 165 585 l 165 472 l 78 472 l 78 583 q 154 660 78 660 l 371 660 q 447 583 447 660 l 447 0 m 359 82 l 359 315 l 158 315 l 158 78 l 359 82 m 422 718 l 364 718 l 262 798 l 159 718 l 103 718 l 103 724 l 237 878 l 290 878 l 422 724 l 422 718 z "},"ä":{"ha":521,"x_min":71,"x_max":447,"o":"m 447 0 l 358 0 l 358 18 q 251 4 304 11 q 144 -4 184 -4 q 71 69 71 -4 l 71 310 q 147 386 71 386 l 359 386 l 359 585 l 165 585 l 165 472 l 78 472 l 78 583 q 154 660 78 660 l 371 660 q 447 583 447 660 l 447 0 m 359 82 l 359 315 l 158 315 l 158 78 l 359 82 m 400 718 l 300 718 l 300 821 l 400 821 l 400 718 m 225 718 l 125 718 l 125 821 l 225 821 l 225 718 z "},"ã":{"ha":521,"x_min":71,"x_max":447,"o":"m 447 0 l 358 0 l 358 18 q 251 4 304 11 q 144 -4 184 -4 q 71 69 71 -4 l 71 310 q 147 386 71 386 l 359 386 l 359 585 l 165 585 l 165 472 l 78 472 l 78 583 q 154 660 78 660 l 371 660 q 447 583 447 660 l 447 0 m 359 82 l 359 315 l 158 315 l 158 78 l 359 82 m 410 766 q 360 717 410 717 q 271 741 331 717 q 188 778 229 760 l 188 718 l 116 718 l 116 802 q 165 851 116 851 q 255 827 195 851 q 338 790 296 808 l 338 850 l 410 850 l 410 766 z "},"å":{"ha":521,"x_min":71,"x_max":447,"o":"m 447 0 l 358 0 l 358 18 q 251 4 304 11 q 144 -4 184 -4 q 71 69 71 -4 l 71 310 q 147 386 71 386 l 359 386 l 359 585 l 165 585 l 165 472 l 78 472 l 78 583 q 154 660 78 660 l 371 660 q 447 583 447 660 l 447 0 m 359 82 l 359 315 l 158 315 l 158 78 l 359 82 m 393 781 q 331 718 393 718 l 195 718 q 132 781 132 718 l 132 908 q 195 971 132 971 l 331 971 q 393 908 393 971 l 393 781 m 324 781 l 324 908 l 201 908 l 201 781 l 324 781 z "},"ç":{"ha":513,"x_min":74,"x_max":440,"o":"m 440 77 q 364 0 440 0 l 150 0 q 74 77 74 0 l 74 583 q 150 660 74 660 l 364 660 q 440 583 440 660 l 440 452 l 351 452 l 351 581 l 164 581 l 164 79 l 351 79 l 351 227 l 440 227 l 440 77 m 387 -210 q 332 -264 387 -264 l 193 -264 q 139 -210 139 -264 l 139 -133 l 210 -133 l 210 -203 l 314 -203 l 314 -130 q 254 -100 283 -115 q 224 -45 224 -80 l 224 0 l 296 0 l 296 -47 q 358 -78 327 -62 q 387 -133 387 -98 l 387 -210 z "},"é":{"ha":518,"x_min":74,"x_max":443,"o":"m 443 77 q 367 0 443 0 l 150 0 q 74 77 74 0 l 74 583 q 150 660 74 660 l 367 660 q 443 583 443 660 l 443 346 l 412 314 l 161 314 l 161 75 l 355 75 l 355 196 l 443 196 l 443 77 m 355 386 l 355 585 l 161 585 l 161 386 l 355 386 m 402 875 l 236 718 l 173 718 l 173 722 l 275 878 l 402 878 l 402 875 z "},"è":{"ha":518,"x_min":74,"x_max":443,"o":"m 443 77 q 367 0 443 0 l 150 0 q 74 77 74 0 l 74 583 q 150 660 74 660 l 367 660 q 443 583 443 660 l 443 346 l 412 314 l 161 314 l 161 75 l 355 75 l 355 196 l 443 196 l 443 77 m 355 386 l 355 585 l 161 585 l 161 386 l 355 386 m 340 718 l 278 718 l 111 875 l 111 878 l 239 878 l 340 722 l 340 718 z "},"ê":{"ha":518,"x_min":74,"x_max":443,"o":"m 443 77 q 367 0 443 0 l 150 0 q 74 77 74 0 l 74 583 q 150 660 74 660 l 367 660 q 443 583 443 660 l 443 346 l 412 314 l 161 314 l 161 75 l 355 75 l 355 196 l 443 196 l 443 77 m 355 386 l 355 585 l 161 585 l 161 386 l 355 386 m 418 718 l 360 718 l 258 798 l 155 718 l 99 718 l 99 724 l 233 878 l 286 878 l 418 724 l 418 718 z "},"ë":{"ha":518,"x_min":74,"x_max":443,"o":"m 443 77 q 367 0 443 0 l 150 0 q 74 77 74 0 l 74 583 q 150 660 74 660 l 367 660 q 443 583 443 660 l 443 346 l 412 314 l 161 314 l 161 75 l 355 75 l 355 196 l 443 196 l 443 77 m 355 386 l 355 585 l 161 585 l 161 386 l 355 386 m 396 718 l 296 718 l 296 821 l 396 821 l 396 718 m 221 718 l 121 718 l 121 821 l 221 821 l 221 718 z "},"í":{"ha":248,"x_min":47,"x_max":276,"o":"m 168 0 l 79 0 l 79 660 l 168 660 l 168 0 m 276 875 l 110 718 l 47 718 l 47 722 l 149 878 l 276 878 l 276 875 z "},"ì":{"ha":248,"x_min":-32,"x_max":197,"o":"m 168 0 l 79 0 l 79 660 l 168 660 l 168 0 m 197 718 l 135 718 l -32 875 l -32 878 l 96 878 l 197 722 l 197 718 z "},"î":{"ha":248,"x_min":-35,"x_max":285,"o":"m 168 0 l 79 0 l 79 660 l 168 660 l 168 0 m 285 708 l 227 708 l 124 787 l 21 708 l -35 708 l -35 713 l 99 867 l 152 867 l 285 713 l 285 708 z "},"ï":{"ha":248,"x_min":-14,"x_max":261,"o":"m 168 0 l 79 0 l 79 660 l 168 660 l 168 0 m 261 718 l 161 718 l 161 821 l 261 821 l 261 718 m 86 718 l -14 718 l -14 821 l 86 821 l 86 718 z "},"ñ":{"ha":525,"x_min":74,"x_max":453,"o":"m 453 0 l 363 0 l 363 579 l 164 574 l 164 0 l 74 0 l 74 660 l 164 660 l 164 642 q 271 656 217 648 q 378 664 336 664 q 453 590 453 664 l 453 0 m 410 766 q 360 717 410 717 q 271 741 331 717 q 188 778 229 760 l 188 718 l 116 718 l 116 802 q 165 851 116 851 q 255 827 195 851 q 338 790 296 808 l 338 850 l 410 850 l 410 766 z "},"ó":{"ha":526,"x_min":74,"x_max":453,"o":"m 453 77 q 376 0 453 0 l 150 0 q 74 77 74 0 l 74 583 q 150 660 74 660 l 376 660 q 453 583 453 660 l 453 77 m 363 79 l 363 581 l 164 581 l 164 79 l 363 79 m 411 875 l 245 718 l 182 718 l 182 722 l 283 878 l 411 878 l 411 875 z "},"ò":{"ha":526,"x_min":74,"x_max":453,"o":"m 453 77 q 376 0 453 0 l 150 0 q 74 77 74 0 l 74 583 q 150 660 74 660 l 376 660 q 453 583 453 660 l 453 77 m 363 79 l 363 581 l 164 581 l 164 79 l 363 79 m 342 718 l 279 718 l 113 875 l 113 878 l 240 878 l 342 722 l 342 718 z "},"ô":{"ha":526,"x_min":74,"x_max":453,"o":"m 453 77 q 376 0 453 0 l 150 0 q 74 77 74 0 l 74 583 q 150 660 74 660 l 376 660 q 453 583 453 660 l 453 77 m 363 79 l 363 581 l 164 581 l 164 79 l 363 79 m 425 718 l 366 718 l 264 798 l 161 718 l 105 718 l 105 724 l 239 878 l 292 878 l 425 724 l 425 718 z "},"ö":{"ha":526,"x_min":74,"x_max":453,"o":"m 453 77 q 376 0 453 0 l 150 0 q 74 77 74 0 l 74 583 q 150 660 74 660 l 376 660 q 453 583 453 660 l 453 77 m 363 79 l 363 581 l 164 581 l 164 79 l 363 79 m 401 718 l 301 718 l 301 821 l 401 821 l 401 718 m 226 718 l 126 718 l 126 821 l 226 821 l 226 718 z "},"õ":{"ha":526,"x_min":74,"x_max":453,"o":"m 453 77 q 376 0 453 0 l 150 0 q 74 77 74 0 l 74 583 q 150 660 74 660 l 376 660 q 453 583 453 660 l 453 77 m 363 79 l 363 581 l 164 581 l 164 79 l 363 79 m 411 766 q 361 717 411 717 q 271 741 332 717 q 189 778 230 760 l 189 718 l 117 718 l 117 802 q 166 851 117 851 q 256 827 195 851 q 338 790 297 808 l 338 850 l 411 850 l 411 766 z "},"ú":{"ha":525,"x_min":74,"x_max":452,"o":"m 452 0 l 363 0 l 363 18 q 255 4 309 11 q 147 -4 190 -4 q 74 69 74 -4 l 74 660 l 163 660 l 163 81 l 363 86 l 363 660 l 452 660 l 452 0 m 410 875 l 244 718 l 181 718 l 181 722 l 283 878 l 410 878 l 410 875 z "},"ù":{"ha":525,"x_min":74,"x_max":452,"o":"m 452 0 l 363 0 l 363 18 q 255 4 309 11 q 147 -4 190 -4 q 74 69 74 -4 l 74 660 l 163 660 l 163 81 l 363 86 l 363 660 l 452 660 l 452 0 m 340 718 l 277 718 l 111 875 l 111 878 l 238 878 l 340 722 l 340 718 z "},"û":{"ha":525,"x_min":74,"x_max":452,"o":"m 452 0 l 363 0 l 363 18 q 255 4 309 11 q 147 -4 190 -4 q 74 69 74 -4 l 74 660 l 163 660 l 163 81 l 363 86 l 363 660 l 452 660 l 452 0 m 424 718 l 366 718 l 263 798 l 160 718 l 104 718 l 104 724 l 238 878 l 291 878 l 424 724 l 424 718 z "},"ü":{"ha":525,"x_min":74,"x_max":452,"o":"m 452 0 l 363 0 l 363 18 q 255 4 309 11 q 147 -4 190 -4 q 74 69 74 -4 l 74 660 l 163 660 l 163 81 l 363 86 l 363 660 l 452 660 l 452 0 m 400 718 l 300 718 l 300 821 l 400 821 l 400 718 m 225 718 l 125 718 l 125 821 l 225 821 l 225 718 z "},"†":{"ha":610,"x_min":57,"x_max":553,"o":"m 553 694 l 350 694 l 350 0 l 260 0 l 260 694 l 57 694 l 57 774 l 260 774 l 260 1061 l 350 1061 l 350 774 l 553 774 l 553 694 z "},"°":{"ha":453,"x_min":62,"x_max":390,"o":"m 390 603 q 319 533 390 533 l 134 533 q 62 603 62 533 l 62 991 q 134 1061 62 1061 l 319 1061 q 390 991 390 1061 l 390 603 m 313 602 l 313 993 l 139 993 l 139 602 l 313 602 z "},"¢":{"ha":513,"x_min":74,"x_max":440,"o":"m 440 279 q 347 201 440 201 q 320 202 338 201 q 293 203 302 203 l 293 0 l 221 0 l 221 203 q 194 202 212 203 q 167 201 176 201 q 74 279 74 201 l 74 786 q 167 863 74 863 q 194 863 176 863 q 221 863 212 863 l 221 1061 l 293 1061 l 293 863 q 320 863 302 863 q 347 863 338 863 q 440 786 440 863 l 440 654 l 351 654 l 351 783 l 293 783 l 293 282 l 351 282 l 351 429 l 440 429 l 440 279 m 221 282 l 221 783 l 164 783 l 164 282 l 221 282 z "},"£":{"ha":581,"x_min":41,"x_max":522,"o":"m 522 0 l 41 0 l 41 83 l 119 83 l 119 468 l 41 468 l 41 550 l 119 550 l 119 986 q 140 1040 119 1019 q 195 1061 161 1061 l 437 1061 q 492 1040 471 1061 q 514 986 514 1019 l 514 739 l 419 739 l 419 979 l 212 979 l 212 550 l 412 550 l 412 468 l 212 468 l 212 83 l 522 83 l 522 0 z "},"§":{"ha":579,"x_min":81,"x_max":498,"o":"m 498 75 q 478 21 498 42 q 424 0 457 0 l 157 0 q 102 21 123 0 q 81 75 81 42 l 81 240 l 174 240 l 174 81 l 407 81 l 407 244 l 125 401 q 81 475 81 426 l 81 579 q 123 652 81 628 l 215 701 l 125 751 q 81 825 81 776 l 81 986 q 102 1040 81 1019 q 157 1061 123 1061 l 424 1061 q 478 1040 457 1061 q 498 986 498 1019 l 498 821 l 407 821 l 407 981 l 174 981 l 174 817 l 454 660 q 498 586 498 635 l 498 482 q 456 410 498 433 l 366 359 l 454 310 q 498 236 498 285 l 498 75 m 412 468 l 412 593 l 290 661 l 168 593 l 168 468 l 290 400 l 412 468 z "},"•":{"ha":586,"x_min":89,"x_max":497,"o":"m 497 406 q 418 326 497 326 l 168 326 q 89 406 89 326 l 89 654 q 168 733 89 733 l 418 733 q 497 654 497 733 l 497 406 z "},"¶":{"ha":643,"x_min":65,"x_max":558,"o":"m 558 0 l 468 0 l 468 421 l 349 421 l 349 0 l 258 0 l 258 421 l 140 421 q 86 443 107 421 q 65 497 65 464 l 65 986 q 86 1040 65 1019 q 140 1061 107 1061 l 558 1061 l 558 0 m 468 505 l 468 978 l 288 978 l 288 505 l 468 505 z "},"ß":{"ha":534,"x_min":74,"x_max":460,"o":"m 460 74 q 386 0 460 0 l 261 0 l 261 79 l 371 79 l 371 443 l 260 546 l 260 568 l 370 669 l 370 905 q 296 982 370 982 l 164 982 l 164 0 l 74 0 l 74 1061 l 318 1061 q 419 1021 379 1061 q 458 920 458 981 l 458 705 q 429 620 458 652 q 351 557 390 589 q 431 494 391 526 q 460 408 460 465 l 460 74 z "},"®":{"ha":783,"x_min":85,"x_max":699,"o":"m 699 45 q 654 0 699 0 l 129 0 q 85 45 85 0 l 85 1017 q 129 1061 85 1061 l 654 1061 q 699 1017 699 1061 l 699 45 m 647 47 l 647 1014 l 136 1014 l 136 47 l 647 47 m 536 235 l 465 235 l 355 554 l 370 575 l 456 575 l 456 770 l 330 770 l 330 235 l 262 235 l 262 832 l 476 832 q 524 783 524 832 l 524 562 q 496 519 524 528 q 439 515 484 515 q 536 235 537 238 z "},"©":{"ha":783,"x_min":85,"x_max":699,"o":"m 699 45 q 654 0 699 0 l 129 0 q 85 45 85 0 l 85 1017 q 129 1061 85 1061 l 654 1061 q 699 1017 699 1061 l 699 45 m 647 47 l 647 1014 l 136 1014 l 136 47 l 647 47 m 521 282 q 472 235 521 235 l 311 235 q 261 282 261 235 l 261 783 q 311 832 261 832 l 472 832 q 521 783 521 832 l 521 640 l 452 640 l 452 768 l 330 768 l 330 297 l 452 297 l 452 437 l 521 437 l 521 282 z "},"™":{"ha":757,"x_min":52,"x_max":686,"o":"m 686 453 l 623 453 l 623 825 l 543 517 l 521 517 l 441 825 l 441 453 l 378 453 l 378 1061 l 439 1061 l 532 679 l 628 1061 l 686 1061 l 686 453 m 307 1000 l 211 1000 l 211 453 l 147 453 l 147 1000 l 52 1000 l 52 1061 l 307 1061 l 307 1000 z "},"´":{"ha":555,"x_min":127,"x_max":357,"o":"m 357 875 l 191 718 l 127 718 l 127 722 l 229 878 l 357 878 l 357 875 z "},"¨":{"ha":555,"x_min":140,"x_max":415,"o":"m 415 718 l 315 718 l 315 821 l 415 821 l 415 718 m 240 718 l 140 718 l 140 821 l 240 821 l 240 718 z "},"≠":{"ha":612,"x_min":69,"x_max":543,"o":"m 543 265 l 308 265 l 254 47 l 174 66 l 223 265 l 69 265 l 69 346 l 243 346 l 285 513 l 69 513 l 69 595 l 305 595 l 359 812 l 438 792 l 389 595 l 543 595 l 543 513 l 369 513 l 328 346 l 543 346 l 543 265 z "},"Æ":{"ha":771,"x_min":37,"x_max":708,"o":"m 708 0 l 366 0 l 366 236 l 184 236 l 127 0 l 37 0 l 37 3 l 300 1061 l 704 1061 l 704 978 l 458 978 l 458 582 l 684 582 l 684 497 l 458 497 l 458 83 l 708 83 l 708 0 m 366 319 l 366 989 l 203 319 l 366 319 z "},"Ø":{"ha":618,"x_min":12,"x_max":606,"o":"m 533 75 q 512 21 533 42 q 457 0 490 0 l 160 0 q 106 21 127 0 q 85 75 85 42 l 85 986 q 106 1040 85 1019 q 160 1061 127 1061 l 457 1061 q 512 1040 490 1061 q 533 986 533 1019 l 533 75 m 439 83 l 439 978 l 179 978 l 179 83 l 439 83 m 606 971 l 12 0 l 12 90 l 606 1061 l 606 971 z "},"∞":{"ha":861,"x_min":24,"x_max":838,"o":"m 838 171 q 762 94 838 94 l 591 94 q 498 171 548 94 l 431 273 l 364 170 q 321 113 336 125 q 273 94 302 95 l 101 94 q 24 171 24 94 l 24 515 q 101 592 24 592 l 273 592 q 366 515 317 591 l 432 413 l 498 515 q 591 592 548 592 l 762 592 q 838 515 838 592 l 838 171 m 747 174 l 747 513 l 586 513 l 477 344 l 587 174 l 747 174 m 386 342 l 274 513 l 115 513 l 115 174 l 277 174 l 386 342 z "},"±":{"ha":568,"x_min":46,"x_max":524,"o":"m 521 441 l 325 441 l 325 269 l 244 269 l 244 441 l 47 441 l 47 518 l 244 518 l 244 697 l 325 697 l 325 518 l 521 518 l 521 441 m 524 129 l 46 129 l 46 212 l 524 212 l 524 129 z "},"≤":{"ha":473,"x_min":52,"x_max":396,"o":"m 396 205 l 392 205 l 52 439 l 52 488 l 396 725 l 396 631 l 144 465 l 396 299 l 396 205 m 396 98 l 52 98 l 52 179 l 396 179 l 396 98 z "},"≥":{"ha":473,"x_min":65,"x_max":410,"o":"m 410 439 l 65 205 l 65 299 l 316 465 l 65 631 l 65 725 l 69 725 l 410 488 l 410 439 m 409 98 l 65 98 l 65 179 l 409 179 l 409 98 z "},"¥":{"ha":542,"x_min":30,"x_max":511,"o":"m 511 1055 l 383 631 l 500 631 l 500 551 l 359 551 l 322 428 l 500 428 l 500 349 l 318 349 l 318 0 l 224 0 l 224 349 l 41 349 l 41 428 l 220 428 l 182 551 l 41 551 l 41 631 l 158 631 q 31 1061 30 1059 l 126 1061 l 272 530 l 416 1061 l 511 1061 q 511 1055 511 1057 z "},"µ":{"ha":532,"x_min":74,"x_max":458,"o":"m 458 0 l 370 0 l 370 19 q 245 -1 323 -1 q 163 26 181 -1 l 163 -250 l 74 -250 l 74 660 l 163 660 l 163 172 q 256 77 163 77 q 369 88 321 77 l 369 660 l 458 660 l 458 0 z "},"∂":{"ha":589,"x_min":84,"x_max":505,"o":"m 505 583 l 505 75 q 484 21 505 42 q 430 0 463 0 l 159 0 q 105 21 126 0 q 84 75 84 42 l 84 510 q 105 564 84 543 q 159 585 126 585 l 401 585 l 180 1061 l 282 1061 l 505 583 m 410 83 l 410 503 l 178 503 l 178 83 l 410 83 z "},"∑":{"ha":496,"x_min":58,"x_max":440,"o":"m 440 0 l 58 0 l 58 73 l 317 540 l 58 977 l 58 1061 l 436 1061 l 436 978 l 151 978 l 393 580 l 393 499 l 152 83 l 440 83 l 440 0 z "},"∏":{"ha":545,"x_min":26,"x_max":518,"o":"m 518 978 l 418 978 l 418 0 l 326 0 l 326 978 l 216 978 l 216 0 l 124 0 l 124 978 l 26 978 l 26 1061 l 518 1061 l 518 978 z "},"π":{"ha":545,"x_min":26,"x_max":518,"o":"m 518 522 l 418 522 l 418 0 l 326 0 l 326 522 l 216 522 l 216 0 l 124 0 l 124 522 l 26 522 l 26 606 l 518 606 l 518 522 z "},"∫":{"ha":330,"x_min":-22,"x_max":323,"o":"m 323 982 l 196 982 l 196 -196 q 178 -247 196 -226 q 123 -271 158 -271 l -22 -272 l -22 -193 l 106 -193 l 107 985 q 183 1061 107 1061 l 323 1061 l 323 982 z "},"ª":{"ha":454,"x_min":77,"x_max":378,"o":"m 378 533 l 300 533 l 300 549 q 135 530 145 530 q 77 589 77 530 l 77 783 q 136 843 77 843 l 301 843 l 301 996 l 155 996 l 155 911 l 81 911 l 81 1000 q 142 1061 81 1061 l 315 1061 q 378 1000 378 1061 l 378 533 m 301 604 l 301 782 l 150 782 l 150 600 l 301 604 m 378 379 l 77 379 l 77 446 l 378 446 l 378 379 z "},"º":{"ha":457,"x_min":77,"x_max":380,"o":"m 380 595 q 319 533 380 533 l 139 533 q 77 595 77 533 l 77 1000 q 139 1061 77 1061 l 319 1061 q 380 1000 380 1061 l 380 595 m 304 602 l 304 993 l 153 993 l 153 602 l 304 602 m 380 379 l 77 379 l 77 446 l 380 446 l 380 379 z "},"Ω":{"ha":716,"x_min":40,"x_max":678,"o":"m 678 -1 l 415 -1 l 415 332 l 540 332 l 540 978 l 180 977 l 179 332 l 304 332 l 304 -1 l 40 -1 l 40 87 l 224 87 l 224 248 l 160 248 q 106 269 127 248 q 85 323 85 290 l 85 986 q 106 1040 85 1019 q 160 1061 127 1061 l 557 1061 q 612 1040 590 1061 q 634 986 634 1019 l 634 323 q 613 269 634 290 q 559 248 592 248 l 494 248 l 494 87 l 678 87 l 678 -1 z "},"æ":{"ha":793,"x_min":71,"x_max":720,"o":"m 720 77 q 643 0 720 0 l 432 0 q 372 20 395 0 q 144 -4 161 -4 q 71 69 71 -4 l 71 310 q 147 386 71 386 l 355 386 l 355 585 l 165 585 l 165 472 l 78 472 l 78 583 q 154 660 78 660 l 643 660 q 720 583 720 660 l 720 345 l 688 314 l 441 314 l 441 75 l 632 75 l 632 196 l 720 196 l 720 77 m 632 385 l 632 585 l 441 585 l 441 385 l 632 385 m 355 79 l 355 315 l 158 315 l 158 74 l 355 79 z "},"ø":{"ha":526,"x_min":12,"x_max":518,"o":"m 453 77 q 376 0 453 0 l 150 0 q 74 77 74 0 l 74 583 q 150 660 74 660 l 376 660 q 453 583 453 660 l 453 77 m 363 79 l 363 581 l 164 581 l 164 79 l 363 79 m 518 595 l 12 0 l 12 69 l 518 661 l 518 595 z "},"¿":{"ha":530,"x_min":64,"x_max":469,"o":"m 322 942 l 220 942 l 220 1061 l 322 1061 l 322 942 m 469 75 q 448 21 469 42 q 393 0 427 0 l 140 0 q 85 21 107 0 q 64 75 64 42 l 64 314 q 85 386 64 355 l 224 597 l 224 822 l 318 822 l 318 619 q 298 546 318 575 l 158 336 l 158 83 l 375 83 l 375 322 l 469 322 l 469 75 z "},"¡":{"ha":277,"x_min":86,"x_max":191,"o":"m 189 942 l 87 942 l 87 1061 l 189 1061 l 189 942 m 191 0 l 86 0 l 107 822 l 170 822 l 191 0 z "},"¬":{"ha":639,"x_min":81,"x_max":558,"o":"m 558 225 l 474 225 l 474 423 l 81 423 l 81 507 l 558 507 l 558 225 z "},"√":{"ha":602,"x_min":24,"x_max":572,"o":"m 572 1061 l 282 -1 l 201 -1 l 24 367 l 122 367 l 233 111 l 478 1061 l 572 1061 z "},"ƒ":{"ha":424,"x_min":-85,"x_max":415,"o":"m 415 1061 l 406 982 l 277 982 l 232 660 l 346 660 l 334 581 l 220 581 l 114 -174 q 28 -250 103 -250 l -85 -250 l -75 -171 l 25 -171 l 131 581 l 54 581 l 66 660 l 143 660 l 187 985 q 275 1061 198 1061 l 415 1061 z "},"≈":{"ha":701,"x_min":115,"x_max":586,"o":"m 586 545 q 530 487 586 487 q 460 500 496 487 l 204 598 l 204 491 l 115 491 l 115 633 q 171 691 115 691 q 241 677 205 691 l 497 580 l 497 687 l 586 687 l 586 545 m 586 277 q 530 219 586 219 q 460 233 496 219 l 204 330 l 204 223 l 115 223 l 115 365 q 171 423 115 423 q 241 409 205 423 l 497 312 l 497 419 l 586 419 l 586 277 z "},"Δ":{"ha":555,"x_min":31,"x_max":526,"o":"m 526 0 l 31 0 l 31 83 l 232 1064 l 325 1064 q 431 547 332 1025 q 526 80 526 81 l 526 0 m 432 90 l 277 895 l 122 90 l 432 90 z "},"«":{"ha":621,"x_min":53,"x_max":551,"o":"m 551 106 l 454 106 l 285 363 l 285 390 l 454 647 l 551 647 l 551 642 l 379 376 l 551 106 m 318 106 l 222 106 l 53 363 l 53 390 l 222 647 l 318 647 l 318 642 l 147 376 l 318 106 z "},"»":{"ha":621,"x_min":71,"x_max":568,"o":"m 568 363 l 400 106 l 302 106 l 302 111 l 475 376 l 302 647 l 400 647 l 568 390 l 568 363 m 336 363 l 167 106 l 71 106 l 71 111 l 241 376 l 71 647 l 167 647 l 336 390 l 336 363 z "},"…":{"ha":693,"x_min":64,"x_max":628,"o":"m 628 0 l 526 0 l 526 119 l 628 119 l 628 0 m 397 0 l 296 0 l 296 119 l 397 119 l 397 0 m 167 0 l 64 0 l 64 119 l 167 119 l 167 0 z "}," ":{"ha":136,"x_min":0,"x_max":0,"o":""},"À":{"ha":555,"x_min":43,"x_max":513,"o":"m 513 0 l 419 0 l 382 236 l 171 236 l 134 0 l 43 0 l 43 3 l 232 1064 l 325 1064 l 513 0 m 370 319 l 277 895 l 183 319 l 370 319 m 349 1121 l 286 1121 l 119 1278 l 119 1280 l 247 1280 l 349 1125 l 349 1121 z "},"Ã":{"ha":555,"x_min":43,"x_max":513,"o":"m 513 0 l 419 0 l 382 236 l 171 236 l 134 0 l 43 0 l 43 3 l 232 1064 l 325 1064 l 513 0 m 370 319 l 277 895 l 183 319 l 370 319 m 425 1168 q 375 1118 425 1118 q 286 1143 346 1118 q 203 1179 244 1161 l 203 1120 l 131 1120 l 131 1203 q 180 1253 131 1253 q 270 1228 210 1253 q 353 1192 311 1210 l 353 1251 l 425 1251 l 425 1168 z "},"Õ":{"ha":618,"x_min":85,"x_max":533,"o":"m 533 75 q 512 21 533 42 q 457 0 490 0 l 160 0 q 106 21 127 0 q 85 75 85 42 l 85 986 q 106 1040 85 1019 q 160 1061 127 1061 l 457 1061 q 512 1040 490 1061 q 533 986 533 1019 l 533 75 m 439 83 l 439 978 l 179 978 l 179 83 l 439 83 m 456 1169 q 406 1120 456 1120 q 317 1144 377 1120 q 234 1181 275 1162 l 234 1121 l 162 1121 l 162 1204 q 212 1254 162 1254 q 301 1230 241 1254 q 384 1193 342 1211 l 384 1253 l 456 1253 l 456 1169 z "},"Œ":{"ha":819,"x_min":85,"x_max":757,"o":"m 757 0 l 160 0 q 106 21 127 0 q 85 75 85 42 l 85 986 q 106 1040 85 1019 q 160 1061 127 1061 l 753 1061 l 753 978 l 505 978 l 505 582 l 732 582 l 732 497 l 505 497 l 505 83 l 757 83 l 757 0 m 411 83 l 411 978 l 179 978 l 179 83 l 411 83 z "},"œ":{"ha":796,"x_min":74,"x_max":722,"o":"m 722 77 q 646 0 722 0 l 150 0 q 74 77 74 0 l 74 583 q 150 660 74 660 l 646 660 q 722 583 722 660 l 722 346 l 690 314 l 444 314 l 444 75 l 636 75 l 636 196 l 722 196 l 722 77 m 636 386 l 636 585 l 444 585 l 444 386 l 636 386 m 359 75 l 359 585 l 163 585 l 163 75 l 359 75 z "},"–":{"ha":590,"x_min":65,"x_max":525,"o":"m 525 363 l 65 363 l 65 447 l 525 447 l 525 363 z "},"—":{"ha":876,"x_min":65,"x_max":810,"o":"m 810 363 l 65 363 l 65 447 l 810 447 l 810 363 z "},"“":{"ha":427,"x_min":46,"x_max":367,"o":"m 367 1061 l 342 728 l 241 728 l 306 1061 l 367 1061 m 172 1061 l 147 728 l 46 728 l 111 1061 l 172 1061 z "},"”":{"ha":427,"x_min":60,"x_max":380,"o":"m 380 1061 l 315 728 l 254 728 l 279 1061 l 380 1061 m 184 1061 l 121 728 l 60 728 l 85 1061 l 184 1061 z "},"‘":{"ha":231,"x_min":46,"x_max":172,"o":"m 172 1061 l 147 728 l 46 728 l 111 1061 l 172 1061 z "},"’":{"ha":231,"x_min":60,"x_max":184,"o":"m 184 1061 l 121 728 l 60 728 l 85 1061 l 184 1061 z "},"÷":{"ha":568,"x_min":47,"x_max":521,"o":"m 355 640 q 334 589 355 610 q 283 568 313 568 q 234 589 254 568 q 213 640 213 610 q 234 691 213 670 q 283 712 254 712 q 334 691 313 712 q 355 640 355 670 m 521 424 l 47 424 l 47 509 l 521 509 l 521 424 m 355 292 q 334 241 355 262 q 283 220 313 220 q 234 241 254 220 q 213 292 213 262 q 234 343 213 321 q 283 364 254 364 q 334 343 313 364 q 355 292 355 321 z "},"◊":{"ha":560,"x_min":20,"x_max":541,"o":"m 541 389 l 306 45 l 257 45 l 20 389 l 257 734 l 306 734 l 541 389 m 447 389 l 281 641 l 115 389 l 281 138 l 447 389 z "},"ÿ":{"ha":482,"x_min":36,"x_max":446,"o":"m 446 660 l 287 5 l 221 -250 l 132 -250 l 199 5 l 36 660 l 129 660 l 241 140 l 355 660 l 446 660 m 379 718 l 279 718 l 279 821 l 379 821 l 379 718 m 204 718 l 104 718 l 104 821 l 204 821 l 204 718 z "},"Ÿ":{"ha":542,"x_min":31,"x_max":511,"o":"m 511 1055 l 382 626 q 318 411 358 562 l 318 0 l 224 0 l 224 411 q 195 519 214 463 q 159 626 162 617 l 31 1055 q 31 1061 31 1056 l 126 1061 l 272 530 l 416 1061 l 511 1061 q 511 1055 511 1057 m 408 1121 l 309 1121 l 309 1223 l 408 1223 l 408 1121 m 233 1121 l 134 1121 l 134 1223 l 233 1223 l 233 1121 z "},"⁄":{"ha":220,"x_min":-221,"x_max":440,"o":"m 440 1055 l -143 0 l -221 0 l -221 5 l 363 1061 l 440 1061 l 440 1055 z "},"¤":{"ha":828,"x_min":96,"x_max":743,"o":"m 743 745 l 623 625 l 623 357 l 743 237 l 663 157 l 531 288 l 307 288 l 176 157 l 96 237 l 216 357 l 216 625 l 96 745 l 176 825 l 308 694 l 532 694 l 663 825 l 743 745 m 511 389 l 511 594 l 328 594 l 328 389 l 511 389 z "},"‹":{"ha":389,"x_min":53,"x_max":318,"o":"m 318 106 l 222 106 l 53 363 l 53 390 l 222 647 l 318 647 l 318 642 l 147 376 l 318 106 z "},"›":{"ha":389,"x_min":71,"x_max":336,"o":"m 336 363 l 167 106 l 71 106 l 71 111 l 241 376 l 71 647 l 167 647 l 336 390 l 336 363 z "},"":{"ha":591,"x_min":31,"x_max":513,"o":"m 513 0 l 424 0 l 424 581 l 196 581 l 196 0 l 107 0 l 107 581 l 31 581 l 31 660 l 107 660 l 107 985 q 183 1061 107 1061 l 436 1061 q 513 985 513 1061 l 513 804 l 424 804 l 424 982 l 196 982 l 196 660 l 513 660 l 513 0 z "},"":{"ha":591,"x_min":31,"x_max":513,"o":"m 513 0 l 424 0 l 424 982 l 196 982 l 196 660 l 309 660 l 309 581 l 196 581 l 196 0 l 107 0 l 107 581 l 31 581 l 31 660 l 107 660 l 107 985 q 183 1061 107 1061 l 513 1061 l 513 0 z "},"‡":{"ha":610,"x_min":57,"x_max":553,"o":"m 553 288 l 349 288 l 349 0 l 261 0 l 261 288 l 57 288 l 57 367 l 261 367 l 261 694 l 57 694 l 57 774 l 261 774 l 261 1061 l 349 1061 l 349 774 l 553 774 l 553 694 l 349 694 l 349 367 l 553 367 l 553 288 z "},"·":{"ha":231,"x_min":64,"x_max":167,"o":"m 167 354 l 64 354 l 64 475 l 167 475 l 167 354 z "},"‚":{"ha":231,"x_min":47,"x_max":174,"o":"m 174 171 l 109 -163 l 47 -163 l 72 171 l 174 171 z "},"„":{"ha":427,"x_min":60,"x_max":380,"o":"m 380 171 l 315 -163 l 254 -163 l 279 171 l 380 171 m 184 171 l 121 -163 l 60 -163 l 85 171 l 184 171 z "},"‰":{"ha":1346,"x_min":58,"x_max":1281,"o":"m 387 591 q 368 542 387 562 q 321 522 349 522 l 123 522 q 78 544 98 522 q 58 591 58 566 l 58 991 q 79 1039 58 1016 q 123 1061 99 1061 l 321 1061 q 367 1040 347 1061 q 387 991 387 1018 l 387 591 m 305 597 l 305 982 l 140 982 l 140 597 l 305 597 m 798 1058 l 215 3 l 137 3 l 137 8 l 721 1064 l 798 1064 l 798 1058 m 874 69 q 855 20 874 41 q 808 0 836 0 l 610 0 q 565 22 585 0 q 545 69 545 44 l 545 470 q 566 517 545 494 q 610 540 586 540 l 808 540 q 854 518 834 540 q 874 470 874 496 l 874 69 m 792 76 l 792 460 l 627 460 l 627 76 l 792 76 m 1281 69 q 1262 20 1281 41 q 1215 0 1242 0 l 1017 0 q 972 22 992 0 q 952 69 952 44 l 952 470 q 972 517 952 494 q 1017 540 993 540 l 1215 540 q 1261 518 1241 540 q 1281 470 1281 496 l 1281 69 m 1199 76 l 1199 460 l 1034 460 l 1034 76 l 1199 76 z "},"Â":{"ha":555,"x_min":43,"x_max":513,"o":"m 513 0 l 419 0 l 382 236 l 171 236 l 134 0 l 43 0 l 43 3 l 232 1064 l 325 1064 l 513 0 m 370 319 l 277 895 l 183 319 l 370 319 m 437 1111 l 379 1111 l 277 1190 l 174 1111 l 118 1111 l 118 1116 l 252 1270 l 304 1270 l 437 1116 l 437 1111 z "},"Ê":{"ha":496,"x_min":85,"x_max":433,"o":"m 433 0 l 85 0 l 85 1061 l 429 1061 l 429 978 l 179 978 l 179 582 l 407 582 l 407 497 l 179 497 l 179 83 l 433 83 l 433 0 m 416 1121 l 358 1121 l 256 1200 l 153 1121 l 97 1121 l 97 1126 l 231 1280 l 283 1280 l 416 1126 l 416 1121 z "},"Á":{"ha":555,"x_min":43,"x_max":513,"o":"m 513 0 l 419 0 l 382 236 l 171 236 l 134 0 l 43 0 l 43 3 l 232 1064 l 325 1064 l 513 0 m 370 319 l 277 895 l 183 319 l 370 319 m 433 1278 l 267 1121 l 204 1121 l 204 1125 l 306 1280 l 433 1280 l 433 1278 z "},"Ë":{"ha":496,"x_min":85,"x_max":433,"o":"m 433 0 l 85 0 l 85 1061 l 429 1061 l 429 978 l 179 978 l 179 582 l 407 582 l 407 497 l 179 497 l 179 83 l 433 83 l 433 0 m 395 1121 l 295 1121 l 295 1223 l 395 1223 l 395 1121 m 220 1121 l 120 1121 l 120 1223 l 220 1223 l 220 1121 z "},"È":{"ha":496,"x_min":85,"x_max":433,"o":"m 433 0 l 85 0 l 85 1061 l 429 1061 l 429 978 l 179 978 l 179 582 l 407 582 l 407 497 l 179 497 l 179 83 l 433 83 l 433 0 m 340 1121 l 278 1121 l 111 1278 l 111 1280 l 239 1280 l 340 1125 l 340 1121 z "},"Í":{"ha":277,"x_min":64,"x_max":293,"o":"m 184 0 l 90 0 l 90 1061 l 184 1061 l 184 0 m 293 1278 l 127 1121 l 64 1121 l 64 1125 l 165 1280 l 293 1280 l 293 1278 z "},"Î":{"ha":277,"x_min":-22,"x_max":298,"o":"m 184 0 l 90 0 l 90 1061 l 184 1061 l 184 0 m 298 1122 l 239 1122 l 137 1201 l 34 1122 l -22 1122 l -22 1127 l 112 1281 l 165 1281 l 298 1127 l 298 1122 z "},"Ï":{"ha":277,"x_min":1,"x_max":275,"o":"m 184 0 l 90 0 l 90 1061 l 184 1061 l 184 0 m 275 1121 l 176 1121 l 176 1223 l 275 1223 l 275 1121 m 100 1121 l 1 1121 l 1 1223 l 100 1223 l 100 1121 z "},"Ì":{"ha":277,"x_min":-20,"x_max":209,"o":"m 184 0 l 90 0 l 90 1061 l 184 1061 l 184 0 m 209 1121 l 146 1121 l -20 1278 l -20 1280 l 107 1280 l 209 1125 l 209 1121 z "},"Ó":{"ha":618,"x_min":85,"x_max":533,"o":"m 533 75 q 512 21 533 42 q 457 0 490 0 l 160 0 q 106 21 127 0 q 85 75 85 42 l 85 986 q 106 1040 85 1019 q 160 1061 127 1061 l 457 1061 q 512 1040 490 1061 q 533 986 533 1019 l 533 75 m 439 83 l 439 978 l 179 978 l 179 83 l 439 83 m 460 1278 l 294 1121 l 231 1121 l 231 1125 l 332 1280 l 460 1280 l 460 1278 z "},"Ô":{"ha":618,"x_min":85,"x_max":533,"o":"m 533 75 q 512 21 533 42 q 457 0 490 0 l 160 0 q 106 21 127 0 q 85 75 85 42 l 85 986 q 106 1040 85 1019 q 160 1061 127 1061 l 457 1061 q 512 1040 490 1061 q 533 986 533 1019 l 533 75 m 439 83 l 439 978 l 179 978 l 179 83 l 439 83 m 469 1121 l 410 1121 l 308 1200 l 205 1121 l 149 1121 l 149 1126 l 283 1280 l 336 1280 l 469 1126 l 469 1121 z "},"Ò":{"ha":618,"x_min":85,"x_max":533,"o":"m 533 75 q 512 21 533 42 q 457 0 490 0 l 160 0 q 106 21 127 0 q 85 75 85 42 l 85 986 q 106 1040 85 1019 q 160 1061 127 1061 l 457 1061 q 512 1040 490 1061 q 533 986 533 1019 l 533 75 m 439 83 l 439 978 l 179 978 l 179 83 l 439 83 m 384 1121 l 321 1121 l 155 1278 l 155 1280 l 282 1280 l 384 1125 l 384 1121 z "},"Ú":{"ha":610,"x_min":85,"x_max":525,"o":"m 525 75 q 504 21 525 42 q 449 0 482 0 l 160 0 q 106 21 127 0 q 85 75 85 42 l 85 1061 l 179 1061 l 179 83 l 431 83 l 431 1061 l 525 1061 l 525 75 m 452 1277 l 286 1120 l 222 1120 l 222 1124 l 324 1280 l 452 1280 l 452 1277 z "},"Û":{"ha":610,"x_min":85,"x_max":525,"o":"m 525 75 q 504 21 525 42 q 449 0 482 0 l 160 0 q 106 21 127 0 q 85 75 85 42 l 85 1061 l 179 1061 l 179 83 l 431 83 l 431 1061 l 525 1061 l 525 75 m 465 1121 l 406 1121 l 304 1200 l 201 1121 l 145 1121 l 145 1126 l 279 1280 l 332 1280 l 465 1126 l 465 1121 z "},"Ù":{"ha":610,"x_min":85,"x_max":525,"o":"m 525 75 q 504 21 525 42 q 449 0 482 0 l 160 0 q 106 21 127 0 q 85 75 85 42 l 85 1061 l 179 1061 l 179 83 l 431 83 l 431 1061 l 525 1061 l 525 75 m 384 1120 l 321 1120 l 155 1277 l 155 1280 l 282 1280 l 384 1124 l 384 1120 z "},"ı":{"ha":248,"x_min":79,"x_max":168,"o":"m 168 0 l 79 0 l 79 660 l 168 660 l 168 0 z "},"ˆ":{"ha":555,"x_min":118,"x_max":437,"o":"m 437 718 l 379 718 l 277 798 l 174 718 l 118 718 l 118 724 l 252 878 l 304 878 l 437 724 l 437 718 z "},"˜":{"ha":555,"x_min":131,"x_max":425,"o":"m 425 766 q 375 717 425 717 q 286 741 346 717 q 203 778 244 760 l 203 718 l 131 718 l 131 802 q 180 851 131 851 q 270 827 210 851 q 353 790 311 808 l 353 850 l 425 850 l 425 766 z "},"¯":{"ha":555,"x_min":127,"x_max":428,"o":"m 428 739 l 127 739 l 127 811 l 428 811 l 428 739 z "},"˘":{"ha":555,"x_min":147,"x_max":408,"o":"m 408 781 q 346 718 408 718 l 210 718 q 147 781 147 718 l 147 868 l 218 868 l 218 783 l 338 783 l 338 868 l 408 868 l 408 781 z "},"˙":{"ha":555,"x_min":228,"x_max":328,"o":"m 328 718 l 228 718 l 228 821 l 328 821 l 328 718 z "},"˚":{"ha":555,"x_min":147,"x_max":408,"o":"m 408 781 q 346 718 408 718 l 210 718 q 147 781 147 718 l 147 908 q 210 971 147 971 l 346 971 q 408 908 408 971 l 408 781 m 339 781 l 339 908 l 216 908 l 216 781 l 339 781 z "},"¸":{"ha":555,"x_min":154,"x_max":401,"o":"m 401 -196 q 347 -250 401 -250 l 208 -250 q 154 -196 154 -250 l 154 -119 l 225 -119 l 225 -189 l 329 -189 l 329 -117 q 269 -86 298 -102 q 239 -32 239 -66 l 239 14 l 311 14 l 311 -33 q 373 -64 342 -49 q 401 -119 401 -84 l 401 -196 z "},"˝":{"ha":555,"x_min":78,"x_max":482,"o":"m 482 875 l 315 718 l 258 718 l 258 722 l 361 878 l 482 878 l 482 875 m 301 875 l 135 718 l 78 718 l 78 722 l 180 878 l 301 878 l 301 875 z "},"˛":{"ha":555,"x_min":153,"x_max":392,"o":"m 392 -250 l 207 -250 q 153 -196 153 -250 l 153 -117 q 179 -56 153 -81 l 252 14 l 339 14 l 339 8 l 229 -102 l 229 -186 l 392 -186 l 392 -250 z "},"ˇ":{"ha":555,"x_min":114,"x_max":441,"o":"m 441 873 l 304 718 l 252 718 l 114 873 l 114 878 l 172 878 l 279 798 l 386 878 l 441 878 l 441 873 z "},"Ł":{"ha":468,"x_min":25,"x_max":424,"o":"m 424 0 l 85 0 l 85 1061 l 179 1061 l 179 83 l 424 83 l 424 0 m 334 500 l 25 272 l 25 368 l 334 595 l 334 500 z "},"ł":{"ha":248,"x_min":18,"x_max":229,"o":"m 168 0 l 79 0 l 79 1061 l 168 1061 l 168 0 m 229 431 l 18 272 l 18 368 l 229 526 l 229 431 z "},"Š":{"ha":581,"x_min":81,"x_max":498,"o":"m 498 75 q 478 21 498 42 q 424 0 457 0 l 157 0 q 102 21 123 0 q 81 75 81 42 l 81 345 l 175 345 l 175 83 l 404 83 l 404 336 l 111 690 q 81 771 81 727 l 81 986 q 102 1040 81 1019 q 157 1061 123 1061 l 424 1061 q 478 1040 457 1061 q 498 986 498 1019 l 498 739 l 404 739 l 404 978 l 175 978 l 175 754 l 469 400 q 498 321 498 365 l 498 75 m 454 1276 l 317 1121 l 264 1121 l 127 1276 l 127 1280 l 185 1280 l 292 1200 l 399 1280 l 454 1280 l 454 1276 z "},"š":{"ha":498,"x_min":69,"x_max":429,"o":"m 429 77 q 353 0 429 0 l 146 0 q 69 77 69 0 l 69 227 l 158 227 l 158 78 l 340 78 l 340 210 l 104 403 q 71 473 71 430 l 71 583 q 147 660 71 660 l 351 660 q 428 583 428 660 l 428 452 l 340 452 l 340 582 l 158 582 l 158 467 l 396 273 q 429 201 429 247 l 429 77 m 414 873 l 277 718 l 224 718 l 86 873 l 86 878 l 144 878 l 252 798 l 358 878 l 414 878 l 414 873 z "},"Ž":{"ha":478,"x_min":33,"x_max":440,"o":"m 440 0 l 33 0 q 33 50 33 50 l 332 978 l 62 978 l 62 1061 l 440 1061 q 440 1013 440 1013 l 142 83 l 440 83 l 440 0 m 415 1276 l 278 1121 l 225 1121 l 87 1276 l 87 1280 l 146 1280 l 253 1200 l 359 1280 l 415 1280 l 415 1276 z "},"ž":{"ha":444,"x_min":43,"x_max":395,"o":"m 390 0 l 43 0 l 43 41 l 283 579 l 68 579 l 68 660 l 390 660 l 390 618 l 149 81 l 390 81 l 390 0 m 395 873 l 258 718 l 205 718 l 68 873 l 68 878 l 126 878 l 233 798 l 340 878 l 395 878 l 395 873 z "},"¦":{"ha":269,"x_min":87,"x_max":182,"o":"m 182 550 l 87 550 l 87 1111 l 182 1111 l 182 550 m 182 -277 l 87 -277 l 87 283 l 182 283 l 182 -277 z "},"Ð":{"ha":603,"x_min":24,"x_max":522,"o":"m 522 192 q 467 54 522 108 q 328 0 412 0 l 85 0 l 85 1061 l 328 1061 q 467 1007 412 1061 q 522 869 522 954 l 522 192 m 428 201 l 428 861 q 395 946 428 913 q 310 978 362 978 l 179 978 l 179 83 l 304 83 q 394 115 359 83 q 428 201 428 146 m 330 514 l 24 514 l 24 611 l 330 611 l 330 514 z "},"ð":{"ha":526,"x_min":74,"x_max":524,"o":"m 524 827 l 453 807 l 453 77 q 376 0 453 0 l 150 0 q 74 77 74 0 l 74 583 q 150 660 74 660 l 366 660 l 366 782 q 277 758 279 758 l 277 842 l 366 867 l 366 983 l 168 983 l 168 850 l 81 850 l 81 985 q 157 1061 81 1061 l 376 1061 q 455 963 455 1061 q 454 926 455 951 q 453 890 453 901 q 524 908 522 909 l 524 827 m 366 79 l 366 581 l 164 581 l 164 79 l 366 79 z "},"Ý":{"ha":542,"x_min":31,"x_max":511,"o":"m 511 1055 l 382 626 q 318 411 358 562 l 318 0 l 224 0 l 224 411 q 195 519 214 463 q 159 626 162 617 l 31 1055 q 31 1061 31 1056 l 126 1061 l 272 530 l 416 1061 l 511 1061 q 511 1055 511 1057 m 425 1267 l 259 1111 l 196 1111 l 196 1115 l 298 1270 l 425 1270 l 425 1267 z "},"ý":{"ha":482,"x_min":36,"x_max":446,"o":"m 446 660 l 287 5 l 221 -250 l 132 -250 l 199 5 l 36 660 l 129 660 l 241 140 l 355 660 l 446 660 m 401 875 l 235 718 l 172 718 l 172 722 l 273 878 l 401 878 l 401 875 z "},"Þ":{"ha":570,"x_min":85,"x_max":505,"o":"m 505 293 q 484 239 505 260 q 429 218 463 218 l 179 218 l 179 0 l 85 0 l 85 1061 l 179 1061 l 179 857 l 429 857 q 484 836 463 857 q 505 782 505 815 l 505 293 m 411 301 l 411 774 l 179 774 l 179 301 l 411 301 z "},"þ":{"ha":524,"x_min":74,"x_max":453,"o":"m 453 142 q 413 40 453 81 q 313 0 373 0 l 164 0 l 164 -250 l 74 -250 l 74 1061 l 164 1061 l 164 642 q 271 655 218 648 q 378 664 339 664 q 453 590 453 664 l 453 142 m 363 155 l 363 579 l 164 574 l 164 79 l 289 79 q 363 155 363 79 z "},"­":{"ha":639,"x_min":81,"x_max":558,"o":"m 558 423 l 81 423 l 81 507 l 558 507 l 558 423 z "},"×":{"ha":639,"x_min":118,"x_max":520,"o":"m 520 599 l 381 460 l 519 322 l 457 260 l 319 399 l 180 260 l 118 321 l 257 460 l 119 599 l 181 661 l 319 522 l 458 661 l 520 599 z "},"¹":{"ha":269,"x_min":57,"x_max":182,"o":"m 182 522 l 93 522 l 93 791 l 57 791 l 116 1061 l 182 1061 l 182 522 z "},"²":{"ha":430,"x_min":43,"x_max":387,"o":"m 387 522 l 43 522 l 43 574 l 288 854 l 288 984 l 134 984 l 134 863 l 54 863 l 54 972 q 77 1035 54 1008 q 137 1061 101 1061 l 281 1061 q 344 1036 319 1061 q 368 972 368 1011 l 368 889 q 336 797 368 833 l 159 601 l 387 601 l 387 522 z "},"³":{"ha":429,"x_min":48,"x_max":382,"o":"m 382 602 q 362 546 382 570 q 310 522 342 522 l 129 522 q 48 604 48 522 l 48 692 l 126 692 l 126 595 l 304 595 l 304 704 l 180 781 l 180 826 l 294 893 l 294 985 l 140 985 l 140 898 l 58 898 l 58 974 q 144 1061 58 1061 l 295 1061 q 372 986 372 1061 l 372 907 q 340 843 372 869 q 274 803 307 823 q 348 758 311 781 q 382 687 382 732 l 382 602 z "},"½":{"ha":738,"x_min":-24,"x_max":729,"o":"m 184 522 l 95 522 l 95 791 l 59 791 l 118 1061 l 184 1061 l 184 522 m 637 1051 l 54 -4 l -24 -4 l -24 1 l 559 1057 l 637 1057 l 637 1051 z "},"¼":{"ha":746,"x_min":20,"x_max":743,"o":"m 184 522 l 95 522 l 95 791 l 59 791 l 118 1061 l 184 1061 l 184 522 m 681 1055 l 98 0 l 20 0 l 20 5 l 604 1061 l 681 1061 l 681 1055 z "},"¾":{"ha":882,"x_min":28,"x_max":839,"o":"m 798 1055 l 214 0 l 136 0 l 136 5 l 720 1061 l 798 1061 l 798 1055 m 361 602 q 341 546 361 570 q 290 522 321 522 l 109 522 q 28 604 28 522 l 28 692 l 106 692 l 106 595 l 283 595 l 283 704 l 159 781 l 159 826 l 274 893 l 274 985 l 119 985 l 119 898 l 37 898 l 37 974 q 123 1061 37 1061 l 275 1061 q 351 986 351 1061 l 351 907 q 319 843 351 869 q 254 803 287 823 q 328 758 291 781 q 361 687 361 732 l 361 602 z "},"€":{"ha":560,"x_min":36,"x_max":496,"o":"m 496 75 q 475 21 496 42 q 420 0 453 0 l 174 0 q 119 21 140 0 q 98 75 98 42 l 98 401 l 36 401 l 36 481 l 98 481 l 98 594 l 36 594 l 36 676 l 98 676 l 98 986 q 119 1040 98 1019 q 174 1061 140 1061 l 420 1061 q 475 1040 453 1061 q 496 986 496 1019 l 496 807 l 401 807 l 401 978 l 193 978 l 193 676 l 462 676 l 462 594 l 193 594 l 193 481 l 462 481 l 462 401 l 193 401 l 193 83 l 401 83 l 401 256 l 496 256 l 496 75 z "}}}
